<svg xmlns="http://www.w3.org/2000/svg" width="612" height="612" viewBox="0 0 612 612"><path fill="#6EA041" d="M350.562 193.881c-69.683-33.244-70.481-86.701-70.481-86.701a75.661 75.661 0 0 1-.632 8.492c.769 12.388-41.235 125.363 1.431 151.605 56.584 34.823 46.329-10.327 39.889 49.928-6.937 64.964 26.434 116.531-51.211 112.105-74.414-4.251-129.944-59.065-129.056-129.523-3.563 12.174-5.631 25.504-5.631 40.365 0 94.145 78.186 161.163 174.731 156.378 95.098-4.713 149.196-74.002 149.196-153.988-.001-74.199-34.823-113.646-108.236-148.661z"/><path fill="#A4D175" d="M392.262 237.101c-44.412-50.543-95.431-44.567-112.181-129.92-9.023 71.226-114.064 105.549-139.58 192.607-2.503 7.609-3.909 15.338-4.404 23.061l-.25.102c-10.064 114.13 113.593 173.825 208.875 131.678 80.7-35.688 113.421-142.53 47.54-217.528z"/><path fill="#557635" d="M240.8 401.923c.44 7.557-5.559 14.04-13.367 14.485-7.806.435-14.49-5.32-14.92-12.878-.43-7.548 5.547-14.037 13.365-14.472 7.82-.448 14.504 5.31 14.922 12.865z"/><path fill="#FFF" d="M233.72 399.045c.179 2.942-2.175 5.472-5.208 5.643-3.038.179-5.653-2.074-5.809-5.018-.179-2.943 2.163-5.464 5.189-5.637 3.058-.173 5.673 2.068 5.828 5.012z"/><path fill="#557635" d="M344.704 387.399c.428 7.558-5.565 14.034-13.377 14.488-7.813.435-14.492-5.327-14.928-12.884-.429-7.55 5.56-14.032 13.378-14.469 7.813-.452 14.491 5.312 14.927 12.865z"/><path fill="#FFF" d="M337.618 384.523c.154 2.943-2.169 5.47-5.213 5.643-3.046.178-5.648-2.08-5.804-5.022-.18-2.944 2.163-5.459 5.196-5.633 3.039-.173 5.643 2.069 5.821 5.012z"/></svg>
