<svg xmlns="http://www.w3.org/2000/svg" width="612" height="612" viewBox="0 0 612 612"><path fill="#732728" d="M106.834 275.26c123.201-75.432 217.492 6.287 217.492 6.287l-2.24 25.709c-63.676-13.837-97.883 31.873-97.883 31.873-36.752-58.806-117.369-63.869-117.369-63.869z"/><path fill="#732728" d="M106.834 275.26s110.104-56.671 193.427 6.397c83.324 63.071 0 0 0 0l-14.128 20.246s-67.35-70.53-179.299-26.643z"/><path fill="#612121" d="M224.203 339.13s-1.109-47.918 29.916-78.943l39.088 17.639 17.718 11.296-36.814 20.568s-26.712 3.346-49.908 29.44z"/><path fill="#B73231" d="M106.834 275.26s102.852-54.247 192.118 6.293l6.233-14.319c.001.001-96.636-59.709-198.351 8.026z"/><path fill="#732728" d="M491.98 151.524c-106.657 17.201-120.365 109.505-120.365 109.505l18.768 24.989c34.007-29.189 64.818-23.886 64.818-23.886-11.929-58.686 36.779-110.608 36.779-110.608z"/><path fill="#B73231" d="M271.57 68.958c15.058 9.1 30.997 17.21 47.678 22.99-.802-12.969.351-26.148 1.024-38.722 1.572-29.277-7.581-44.742-17.84-42.465-10.262 2.277-.893 12.649-33.528 26.289-10.218 4.267-18.369 6.835-26.213 12.564 8.161 8.086 19.81 13.853 28.879 19.344z"/><path fill="#732728" d="M455.201 262.132s-20.716-34.856-66.106-34.856l-5.663 26.154 1.484 16.841 19.941 6.757c0-.001 16.046-14.896 50.344-14.896z"/><path fill="#B73231" d="M491.98 151.524s-108.346 31.654-108.346 125.503l-7.146-36.334c.001-.001 17.791-75.834 115.492-89.169z"/><path fill="#CDCCCC" d="M244.736 510.717l11.403-30.733c-12.728 4.928-30.965 10.394-46.954 14.87 10.3 6.111 22.06 11.537 35.551 15.863z"/><path fill="#DC3F3F" d="M278.816 418.852c-52.415 5.948-91.916-9.301-117.052-34.487-4.085-4.091-7.681-4.47-10.356-2.111-12.574 12.574 27.119 84.467 100.562 84.467 3.496 0 6.472.088 8.997.251l11.277-30.417 6.572-17.703z"/><path fill="#CDCCCC" d="M260.966 466.971l-4.827 13.013c16.434-6.366 23.648-11.817 4.827-13.013z"/><path fill="#732728" d="M151.408 382.253c-11.851 10.463-5.454 75.069 57.777 112.601 15.989-4.477 34.227-9.942 46.954-14.87l4.827-13.013c-2.525-.163-5.5-.251-8.997-.251-73.443 0-113.136-71.893-100.561-84.467zM407.273 516.646c.156.051.301.088.454.135-.153-.05-.297-.084-.454-.135z"/><path fill="#B73231" d="M366.537 485.547c-11.994 21.523 36.805 17.79 55.644-13.85 18.931-36.307-16.267-62.525-16.267-62.525l-37.228 69.401c.802.474.338 2.513-2.149 6.974zM407.728 516.781c-.153-.047-.298-.084-.454-.135-32.626-9.886-37.697 8.881-15.369 27.065 14.968 12.187 6.971 20.601 6.971 20.601 13.705-.987 16.354-12.092 16.354-12.092 13.145-.946 7.96-15.876 7.96-15.876s12.28-14.548-8.633-18.044c-.21-.031-.389-.075-.589-.112-1.88-.238-3.859-.671-5.962-1.329a6.503 6.503 0 0 1-.278-.078z"/><path fill="#732728" d="M391.904 543.712c-22.328-18.185-17.257-36.951 15.369-27.065-14.363-4.241-16.675-11.725-16.675-11.725 16.343-11.65 26.169-22.85 31.582-33.225-18.839 31.64-67.638 35.373-55.644 13.85 2.487-4.461 2.951-6.5 2.149-6.974l-20.165 37.604c-7.014 16.729 24.44 15.344 45.447 35.605 7.788 7.505 4.906 12.53 4.906 12.53s7.999-8.414-6.969-20.6z"/><path fill="#732728" d="M408.006 516.859c2.103.658 4.082 1.091 5.962 1.329a60.97 60.97 0 0 1-5.962-1.329z"/><path opacity=".33" fill="#732728" d="M408.006 516.859c2.103.658 4.082 1.091 5.962 1.329a60.97 60.97 0 0 1-5.962-1.329z"/><g fill="#732728"><path d="M422.181 471.697c-5.569 9.351-13.758 16.246-22.219 20.791-78.224 35.101 18.203-323.789 10.043-79.711 0 0 .586.288-7.628-6.823-8.227-7.117-20.286 52.035-20.286 52.035s-9.858 28.914-13.357 39.618c-4.147-2.018-5.548-6.053-2.196-12.061 2.487-4.461 2.951-6.5 2.149-6.974l-20.165 37.604c-7.014 16.729 24.44 15.344 45.447 35.605 7.788 7.505 4.906 12.53 4.906 12.53s7.997-8.414-6.971-20.601c-22.328-18.185-17.257-36.951 15.369-27.065-14.363-4.241-16.675-11.725-16.675-11.725 16.343-11.649 26.17-22.848 31.583-33.223zM409.863 538.021s7.876 4.383 5.366 14.2c4.308-.276 5.942-2.08 5.942-2.08-1.671-10.673-11.308-12.12-11.308-12.12zM416.733 528.426s4.708 1.435 6.456 7.919c2.03-1.598 2.463-4.022 2.463-4.022-3.293-3.66-8.919-3.897-8.919-3.897z"/></g><path fill="#B73231" d="M436.619 308.149c-10.388-13.934-25.807-24.716-30.405-18.758-4.883 6.344.279 30.602 10.494 52.257 22.235 47.174 9.505 63.237 9.505 63.237 13.467-.664 16.85-12.414 16.85-12.414 14.688-.724 11.412-16.719 11.412-16.719s15.707-9.93-11.174-57.223a118.654 118.654 0 0 0-6.682-10.38z"/><path fill="#B7B7B8" d="M371.424 284.624c2.497-3.22 9.789-11.099 14.103-15.707-12.847-6.792-22.222-9.655-22.222-9.655l.056 30.881s2.842 2.801 7.271 7.509c-1.071-5.94-1.535-10.034.792-13.028z"/><path fill="#732728" d="M418.084 341.577c-9.783-20.738-15.409-41.212-11.162-48.054 4.354-7.011 18.837.065 29.697 14.626-15.359-21.455-35.84-35.323-51.302-43.487-4.311 4.605-11.606 12.487-14.104 15.701-2.33 2.998-1.867 7.095-.792 13.028 14.124 14.999 44.548 49.529 51.825 75.949 6.438 23.338 3.966 35.545 3.966 35.545s14.11-16.135-8.128-63.308z"/><path fill="#DC3F3F" d="M335.703 148.764c-1.86-27.125 7.136-53.978 14.193-79.273C360.532 31.377 353 8.327 338.82 8.327c-14.182 0-4.874 16.399-51.857 24.819-29.124 5.219-45.651 3.991-78.449 42.108-32.798 38.114-58.507 73.127-58.507 115.232s29.252 85.099 48.307 85.099c10.168 0 14.034-8.076 21.345-19.043 14.999-23.726 47.136-33.475 53.119-47.878 0 0-2.885 11.243-21.831 24.703-10.829 7.697-15.992 18.458-18.479 26.771 9.504 1.046 31.783-15.807 48.73-32.754 8.79-8.787 15.359-11.713 19.773-9.805 5.366-14.726 8.179-30.862 17.458-45.707 4.114-8.219 8.246-19.587 17.274-23.108z"/><path fill="#DC3F3F" d="M348.568 190.045c-8.204-13.717-11.922-27.532-12.865-41.281-9.028 3.521-13.16 14.889-17.272 23.109-9.279 14.845-12.092 30.981-17.458 45.707 7.445 3.208 8.752 20.171 4.163 46.04-7.314 41.218-42.553 81.105-42.553 81.105s-27.501 75.64-22.285 128.339l22.285-41.429s51.859-6.812 67.813-85.087c14.444-70.861 50.141-79.204 72.059-46.603-13.485-50.005-37.277-82.12-53.887-109.9z"/><path fill="#EE6A6A" d="M412.837 383.287c0-32.635-4.063-59.941-10.382-83.342-21.198-32.833-63.691-24.258-78.136 46.603-15.954 78.274-61.736 85.087-61.736 85.087l-22.285 41.429c.861 8.681 2.625 16.719 5.526 23.717 4.636 1.08 9.749 2.524 15.437 4.407 77.967 25.787 151.576-32.801 151.576-117.901z"/><path fill="#732728" d="M411.007 411.142c1.194-8.821 1.83-18.106 1.83-27.854 0 3.784-.201 7.493-.479 11.171.617-12.731.413-26.013-.617-39.722 4.993 152.588-126.55 141.057-126.55 141.057l-9.842 9.145a124.598 124.598 0 0 1-14.087-3.75c-5.688-1.883-10.801-3.327-15.437-4.407 5.172 12.471 14.009 21.577 28.062 24.791a111.412 111.412 0 0 0 24.788 2.813l.034.024c.172 0 .329-.013.501-.013.983-.003 1.967-.044 2.948-.078 68.436-1.526 101.353-48.013 108.849-113.177z"/><path fill="#525252" d="M216.622 190.969c6.735-1.278 14.805-9.436 11.863-18.727-2.941-9.292-14.952-1.416-16.443 7.709-1.422 8.697 2.092 11.497 4.58 11.018z"/><path fill="#FFF" d="M221.512 179.438c1.479.511 3.151-.777 3.718-2.879.57-2.102-.169-4.213-1.648-4.721-1.491-.507-3.154.786-3.73 2.885-.564 2.093.171 4.211 1.66 4.715z"/><path fill="#DC3F3F" d="M299.816 277.027s-5.651-12.298 11.967-23.099c17.617-10.805 19.111 4.319 19.111 4.319"/><path fill="#732728" d="M491.98 151.524s-60.085 20.478-91.555 82.906l-5.194-7.155s22.984-53.219 96.749-75.751z"/><path fill="#DC3F3F" d="M235.339 550.281c-.83 24.933 33.268 44.742 15.503 53.285 16.622 2.215 21.94-7.537 21.94-7.537 22.602 3.327 21.493-16.177 21.493-16.177 10.604-7.011 9.683-16.333.022-25.571-21.934-18.143-58.128-28.841-58.958-4zM300.077 463.073c.329-22.188-12.227-39.896-12.227-39.896s17.286-113.461-44.765-64.265c-62.053 49.197-52.909 115.62-39.223 137.395 23.154 33.575 84.511 18.288 96.215-33.234z"/><path fill="#732728" d="M285.19 499.85c10.986-12.217 14.714-25.116 14.886-36.776-11.704 51.521-72.156 64.052-96.214 33.625 16.509 26.261 38.998 20.882 28.807 39.718-10.197 18.84.667 37.012 14.848 48.533s3.324 18.617 3.324 18.617c27.974-9.085-9.529-25.803-9.529-50.748 0-19.5 29.91-14.209 52.984 1.463-2.86-2.731-6.443-5.457-10.77-8.113-18.944-11.635-28.919-12.299 1.664-46.319z"/><path fill="#732728" d="M272.782 596.029c8.088-10.19 1.216-18.06 1.216-18.06s10.112 4.101 7.991 18.06c0 0-4 2.109-9.207 0M294.275 579.853c0-11.299-7.756-14.071-7.756-14.071s8.537.304 12.189 10.29c0-.001-1.827 2.728-4.433 3.781"/><g><path fill="#DC3F3F" d="M338.82 8.328c-14.182 0-4.874 16.399-51.857 24.819-2.333.417-4.577.79-6.763 1.15 25.644-3.963 22.68 3.906 4.323 12.815-23.002 11.158-36.623 1.081-68.945 46.745-32.325 45.663-43.12 92.499-23.908 129.876 20.045 38.991 33.69 19.128 53.022 8.74l-.006.006c12.527-8.762 24.647-15.519 28.093-23.813 0 0-2.885 11.243-21.831 24.703-10.829 7.697-15.992 18.458-18.479 26.771 9.504 1.046 31.783-15.807 48.73-32.754 8.79-8.787 15.359-11.713 19.773-9.805 5.366-14.726 8.179-30.862 17.458-45.707 4.112-8.22 8.244-19.588 17.272-23.109-1.86-27.125 7.136-53.978 14.193-79.273 10.637-38.115 3.106-61.164-11.075-61.164z"/></g><path fill="#612121" d="M251.7 234.117c18.946-13.461 21.079-25.452 21.079-25.452-5.983 14.403-38.12 24.152-53.119 47.878 3.894 2.86 8.204 3.925 12.809 3.596 2.488-8.313 8.402-18.325 19.231-26.022z"/><path fill="none" d="M250.948 233.368c18.946-13.46 21.831-24.703 21.831-24.703-3.063 7.371-12.972 13.526-23.933 20.957a11.467 11.467 0 0 0 1.895 3.916c.076-.057.135-.116.207-.17z"/><g><path fill="#5A1D1A" d="M215.929 202.459c6.676-1.56 14.397-10.046 11.067-19.206-3.333-9.16-15.001-.789-16.107 8.396-1.059 8.746 2.575 11.396 5.04 10.81z"/><path fill="#FFF" d="M220.328 190.737c1.5.451 3.117-.909 3.593-3.036.486-2.118-.344-4.201-1.842-4.642-1.51-.445-3.12.911-3.605 3.035-.477 2.115.347 4.205 1.854 4.643z"/></g><path fill="#DC3F3F" d="M308.418 264.989s-48.642 29.434-62.002 113.365c-5.82 36.531 10.272 40.776 10.272 40.776s12.818 18.231 30.42 12.85c0 0 9.558 10.444 30.374.126 0 0-23.729-10.989-30.383-48.643-6.66-37.657 10.219-78.578 22.154-92.668 13.362-15.779 12.382-34.665-.835-25.806z"/><g><path fill="#A5A5A5" d="M301.909 428.941l-.736-.526c.473.363.736.526.736.526z"/><path fill="#732728" d="M290.381 382.012c-5.539-31.341 2.966-63.907 12.856-82.089-41.315 72.729-10.381 122.045-1.328 129.019 0 0-14.836 4.986-22.367-10.081 0 0 .52 5.714 3.656 9.526 0 0-22.604 2.343-28.093-19.215 0 0-2.901 10.936 8.254 18.66 11.528 7.976 23.494 5.206 23.494 5.206s15.525 11.767 32.573-.958c.001 0-22.388-12.411-29.045-50.068z"/></g><path fill="#732728" d="M393.183 270.934s7.91-10.748-5.817-14.209c0 0-8.451-20.885-17.805-34.863-.022-.028-.048-.06-.069-.091-9.893-16.295-21.133-33.099-27.185-49.513-9.316-29.158 4.837-30.593 7.693-38.001 4.477-11.584-12.42-6.938-8.028-31.792 1.971-8.047 4.332-16.095 6.819-24.111 9.335-30.082 13.962-70.025-9.971-70.025 0 0 17.176 2.346 6.205 36.078-10.97 33.729-53.185 56.997-41.547 100.875 10.159 38.324 2.211 58.836-21.552 81.391 0 0 29.365-28.206 25.502 19.767 6.857-7.85 7.546-20.368 7.155-32.31.04-18.708 8.057-39.971 33.486-11.478.621.705 1.244 1.407 1.858 2.127.103.122.21.254.316.379 28.187 33.293 47.069 78.462 52.21 94.789-.672-3.213-6.075-21.551-9.27-29.013zM280.392 497.322c27.341-24.829 12.051-63.497 12.051-63.497h6.071s20.302 33.146 1.563 76.892"/><path fill="#732728" d="M403.078 248.793c-24.258-8.542-12.232-38.486-12.232-38.486-10.985 14.162-15.415 31.05-15.415 31.05l10.096 14.748s12.086 8.154 12.81 7.427c.723-.727 29-6.193 4.741-14.739z"/><path fill="#612121" d="M254.109 260.196s22.607 6.115 39.094 17.63l-26.417 2.951s-9.924-7.475-10.325-7.875c-.4-.402-2.352-12.706-2.352-12.706zM455.201 262.132s-10.513-46.137-55.224-43.361c0 0 27.165-49.861 92.003-67.247 0 0-46.001 51.045-36.779 110.608z"/><path fill="#612121" d="M388.48 250.037s.226-20.766 19.66-43.208l15.425-2.794 5.213 2.794s-30.549 16.985-40.298 43.208z"/></svg>
