<svg xmlns="http://www.w3.org/2000/svg" width="612" height="612" viewBox="0 0 612 612"><path fill="#DC3F3F" d="M207.672 567.549c-20.313-2.97-50.297 9.042-38.264 23.35-8.729-12.262 20.194-15.742 40.376-8.541 10.996 3.921 26.629 10.167 17.443 15.266 12.411-5.255 11.275-25.565-19.555-30.075z"/><path fill="#732728" d="M210.733 578.404c-21.015-5.195-50.054.232-41.325 12.494 12.033 14.304 45.409 11.977 57.819 6.725 9.187-5.099 4.303-14.078-16.494-19.219z"/><path fill="#DC3F3F" d="M254.446 148.903c-81.215 100.735-34.004 175.966-26.922 194.386 7.082 18.412 10.862 17.471-19.831 42.965-32.142 26.708-42.81 70.53-36.313 108.212 3.205 18.624 10.583 35.75 21.674 48.562 25.308 29.226 67.561 41.217 104.837 25.033 4.874-10.898 21.879-24.201 37.107-28.736 11.073-13.595 18.281-29.031 22.003-44.858 9.215-39.159-2.973-80.7-31.26-102.545-32.739-25.275-59.495-16.525-73.189-30.22-22.232-22.228 16.332-238.747 197.352-346.595l2.864-2.197c0-.001-117.103 35.255-198.322 135.993z"/><path fill="none" d="M304.179 313.221c-.808.296-1.577.586-2.367.881a70.768 70.768 0 0 0 4.582-1.682c-.738.265-1.475.537-2.215.801z"/><path fill="#732728" d="M405.432 154.648c-3.367-70.713-52.561-86.922-113.639 41.445-53.651 112.771-23.512 129.205 10.019 118.008.79-.295 1.559-.585 2.367-.881.741-.264 1.478-.536 2.215-.801a.647.647 0 0 1 .113-.042c.088-.039.176-.06.264-.096 52.317-18.991 103.104-39.942 98.778-152.048-.074-1.91-.081-3.715-.117-5.585z"/><path fill="#5A1D1A" d="M413.614 78.847c10.852-39.4 32.128-60.073 39.153-65.938l-2.864 2.197C266.839 123.12 230.32 339.474 252.552 361.701c-5.995-6.944-1.411-21.776 19.316-33.915 7.688-4.508 17.548-9.085 29.944-13.685-33.531 11.197-60.235-13.429-8.608-118.008 55.94-113.319 108.861-112.159 112.228-41.445-.719-31.154 2.757-56.129 8.182-75.801z"/><path fill="#A09F9F" d="M306.394 312.42c.126-.049.25-.091.377-.138-.088.036-.176.057-.264.096a.593.593 0 0 0-.113.042z"/><path fill="#732728" d="M297.873 568.061c4.877-10.898 21.883-24.201 37.11-28.736 11.074-13.595 18.286-29.031 22.004-44.858 9.215-39.159-2.974-80.7-31.265-102.545-32.734-25.275-59.494-16.525-73.188-30.22-.23-.229-.441-.512-.653-.782 9.847 14.678 27.466 14.532 46.188 29.312 22.433 17.708 33.647 47.763 31.638 83.61-4.196 74.973-102.985 110.088-138.95 66.325.761.96 1.492 1.944 2.278 2.86 25.312 29.226 67.565 41.217 104.838 25.034z"/><path fill="#5A1D1A" d="M274.601 507.655c5.181-.011 9.395-4.701 9.395-10.471.004-5.762-4.204-10.417-9.381-10.396-5.181.015-9.377 4.701-9.377 10.464-.004 5.769 4.186 10.425 9.363 10.403zM204.688 503.77c-4.419 1.53-6.637 6.75-4.952 11.669 1.675 4.913 6.63 7.657 11.06 6.126 4.409-1.53 6.634-6.754 4.948-11.666-1.682-4.92-6.637-7.657-11.056-6.129z"/><path fill="#FFF" d="M278.611 493.976c-.007 2.018-1.64 3.672-3.665 3.675a3.655 3.655 0 0 1-3.664-3.653 3.679 3.679 0 0 1 3.667-3.676 3.646 3.646 0 0 1 3.662 3.654zM211.41 510.77a3.684 3.684 0 0 1-3.675 3.672 3.647 3.647 0 0 1-3.664-3.647 3.691 3.691 0 0 1 3.671-3.679 3.648 3.648 0 0 1 3.668 3.654z"/><path fill="#DC3F3F" d="M299.22 554.404c17.87-22.909 43.206-31.729 54.812-20.923 11.598 10.812-5.055 38.574-32.344 43.903-27.289 5.333-37.318-3.928-22.468-22.98z"/><path fill="#732728" d="M299.746 557.837c16.356-19.722 34.791-24.165 45.311-14.947 10.516 9.215-.092 30.541-24.966 35.229-24.852 4.69-33.958-3.877-20.345-20.282z"/></svg>
