<svg xmlns="http://www.w3.org/2000/svg" width="612" height="612" viewBox="0 0 612 612"><radialGradient id="a" cx="346.815" cy="300.75" r="203.785" gradientTransform="matrix(1 0 0 -1 0 435)" gradientUnits="userSpaceOnUse"><stop offset="0" stop-color="#00b4b7"/><stop offset="1" stop-color="#009caa"/></radialGradient><path fill="url(#a)" d="M382.046 446.934c-29.364-59.73-23.345-112.029-21.423-155.324 62.018-18.865 106.148-67.129 106.148-123.715 0-73.022-73.437-132.215-164.024-132.215-90.59 0-161.399 82.627-161.399 155.642 0 67.063 59.759 102.68 139.693 108.041-.262 4.135-.546 7.486-.889 9.486 0 0-2.93 109.729-34.656 184.996-13.247 31.42-50.463-3.644-69.076 17.655-7.062 8.087-17.827 46.326 17.838 76.38 35.669 30.05 83.732 24.25 103.125-36.316 16.253-50.752 21.132-81.507 15.715-180.872.065.039.645-35.488.721-35.445 5.373 89.731 13.557 137.248 29.879 179.209 21.784 56.021 62.688 52.114 89.913 15.217 27.246-36.895 14.745-72.557 8.064-79.144-17.559-17.337-45.654 24.836-59.629-3.595z"/><radialGradient id="b" cx="-524.95" cy="-71.799" r="44.924" gradientTransform="matrix(-1 0 0 1 -309.743 235.883)" gradientUnits="userSpaceOnUse"><stop offset="0" stop-color="#00b4b7"/><stop offset="1" stop-color="#009caa"/></radialGradient><circle fill="url(#b)" cx="215.207" cy="164.083" r="44.924"/><radialGradient id="c" cx="609.248" cy="-50.618" r="55.356" gradientTransform="translate(-384.364 235.883)" gradientUnits="userSpaceOnUse"><stop offset="0" stop-color="#fff"/><stop offset="1" stop-color="#f6f6f6"/></radialGradient><path fill="url(#c)" d="M251.146 164.085c0-19.855-16.084-35.94-35.943-35.94-19.848 0-35.936 16.085-35.936 35.94 0 19.837 16.088 35.934 35.936 35.934 19.859-.001 35.943-16.097 35.943-35.934z"/><radialGradient id="d" cx="590.181" cy="-64.873" r="26.518" gradientTransform="translate(-384.364 235.883)" gradientUnits="userSpaceOnUse"><stop offset="0" stop-color="#585857"/><stop offset="1" stop-color="#3d3d3c"/></radialGradient><circle fill="url(#d)" cx="201.186" cy="160.865" r="17.21"/><radialGradient id="e" cx="2537.412" cy="1094.269" r="22.677" gradientTransform="matrix(.2011 -.1966 .3189 .37 -650.784 253.18)" gradientUnits="userSpaceOnUse"><stop offset="0" stop-color="#fff"/><stop offset="1" stop-color="#f6f6f6"/></radialGradient><path fill="url(#e)" d="M207.852 153.882c-2.594-3.015-6.021-4.157-7.66-2.56-1.641 1.606-.861 5.338 1.734 8.355 2.598 3.008 6.021 4.151 7.662 2.54 1.637-1.592.852-5.321-1.736-8.335z"/><g><radialGradient id="f" cx="-646.473" cy="-182.584" r="44.923" gradientTransform="matrix(-1 0 0 .6115 -309.743 271.059)" gradientUnits="userSpaceOnUse"><stop offset="0" stop-color="#00b4b7"/><stop offset="1" stop-color="#009caa"/></radialGradient><ellipse fill="url(#f)" cx="336.73" cy="159.408" rx="44.92" ry="27.471"/><radialGradient id="g" cx="730.769" cy="-126.748" r="55.362" gradientTransform="matrix(1 0 0 .6879 -384.364 263.918)" gradientUnits="userSpaceOnUse"><stop offset="0" stop-color="#fff"/><stop offset="1" stop-color="#f6f6f6"/></radialGradient><ellipse fill="url(#g)" cx="336.73" cy="162.157" rx="35.934" ry="24.728"/><radialGradient id="h" cx="711.713" cy="-64.873" r="26.513" gradientTransform="translate(-384.364 235.883)" gradientUnits="userSpaceOnUse"><stop offset="0" stop-color="#585857"/><stop offset="1" stop-color="#3d3d3c"/></radialGradient><circle fill="url(#h)" cx="322.716" cy="160.865" r="17.21"/><radialGradient id="i" cx="-388.077" cy="374.591" r="22.681" gradientTransform="matrix(-.1777 .218 -.3585 -.3318 386.631 363.643)" gradientUnits="userSpaceOnUse"><stop offset="0" stop-color="#fff"/><stop offset="1" stop-color="#f6f6f6"/></radialGradient><path fill="url(#i)" d="M322.511 159.983c2.914 2.705 6.445 3.447 7.89 1.678 1.443-1.773.252-5.398-2.663-8.103-2.921-2.691-6.45-3.448-7.903-1.662-1.44 1.763-.252 5.383 2.676 8.087z"/></g><linearGradient id="j" gradientUnits="userSpaceOnUse" x1="250.863" y1="202.795" x2="295.33" y2="202.795" gradientTransform="matrix(1 0 0 -1 0 435)"><stop offset="0" stop-color="#585857"/><stop offset="1" stop-color="#3d3d3c"/></linearGradient><path opacity=".73" fill="url(#j)" d="M250.863 224.383h44.467s-19.88 35.198-44.467 0z"/><path fill="#17E6D7" d="M202.716 3.65c.03-.006-.235 4.6.262 11.367.479 6.779 2.048 15.603 5.072 23.843 2.949 8.271 7.203 16.009 10.844 21.99 3.647 5.972 6.562 10.246 6.984 11.219 1.733 3.846-2.237 9.621-9.011 12.85-6.772 3.222-13.852 2.515-15.747-1.718-.463-1.062-2.032-6.449-3.641-14.219-1.607-7.756-3.076-18.02-2.854-28.081.138-10.074 2.063-19.628 4.137-26.356 2.063-6.749 3.985-10.882 3.954-10.895zM419.857 4.4c-.032-.007-.398 4.59-1.847 11.224-1.423 6.644-4.207 15.167-8.361 22.9-4.069 7.777-9.372 14.845-13.809 20.26-4.438 5.397-7.932 9.226-8.489 10.126-2.252 3.577.873 9.846 7.126 13.987 6.251 4.14 13.36 4.422 15.842.5.599-.984 2.909-6.101 5.596-13.564 2.663-7.459 5.556-17.41 6.74-27.406 1.281-9.999.71-19.73-.406-26.675-1.097-6.974-2.424-11.339-2.392-11.352zM362.224 114.31c.007.008-4.016.283-10.053 1.185-6.017.882-14.034 2.383-21.83 4.224-7.811 1.829-15.336 4.004-20.546 5.838-5.281 1.835-8.065 3.247-8.688 3.487-1.255.509-2.838.735-4.667.792-1.811.052-3.906-.037-5.704-.443-1.787-.402-2.819-1.115-2.714-2.029.077-.9 1.29-1.958 3.329-2.779 1.005-.412 6.244-2.222 13.372-3.864 7.127-1.682 16.088-3.254 24.729-4.354 8.652-1.115 17.002-1.775 23.039-2.004 6.067-.241 9.737-.042 9.733-.053zM194.606 107.221c-.005.004 3.754.202 9.387.986 5.631.76 13.115 2.107 20.407 3.787 7.288 1.676 14.322 3.695 19.185 5.428 4.933 1.728 7.537 3.083 8.114 3.311 1.169.483 2.65.672 4.355.702 1.691.015 3.652-.118 5.334-.556 1.669-.436 2.632-1.17 2.54-2.078-.068-.899-1.204-1.931-3.105-2.706-.935-.394-5.833-2.098-12.49-3.599-6.658-1.537-15.027-2.933-23.104-3.864-8.083-.944-15.885-1.439-21.521-1.546-5.678-.126-9.105.139-9.102.135z"/></svg>
