<svg xmlns="http://www.w3.org/2000/svg" width="612" height="612" viewBox="0 0 612 612"><path fill="#80757A" d="M209.648 567.342c-20.779-3.038-51.449 9.249-39.141 23.884-8.928-12.542 20.657-16.104 41.302-8.736 11.248 4.011 27.239 10.399 17.842 15.616 12.694-5.376 11.533-26.15-20.003-30.764z"/><path fill="#483643" d="M212.779 578.445c-21.497-5.313-51.2.238-42.272 12.78 12.309 14.632 46.449 12.251 59.144 6.88 9.397-5.216 4.401-14.4-16.872-19.66z"/><path fill="#80757A" d="M257.493 139.109c-83.075 103.042-34.783 179.995-27.539 198.837 7.244 18.834 11.111 17.871-20.285 43.949-32.877 27.318-43.79 72.144-37.145 110.689 3.279 19.052 10.826 36.568 22.171 49.675 25.887 29.894 69.107 42.159 107.237 25.605 4.986-11.147 22.38-24.755 37.958-29.394 11.327-13.907 18.701-29.696 22.507-45.887 9.426-40.057-3.041-82.549-31.977-104.893-33.487-25.854-60.856-16.904-74.864-30.912-22.741-22.737 16.706-244.215 201.87-354.533L460.355 0S340.572 36.063 257.493 139.109z"/><path fill="none" d="M308.364 307.189c-.826.304-1.612.599-2.42.901a72.81 72.81 0 0 0 4.686-1.721c-.754.272-1.508.55-2.266.82z"/><path fill="#483643" d="M411.937 144.986c-3.444-72.333-56.524-88.912-119.001 42.394-54.879 115.354-21.291 132.165 13.008 120.711.808-.303 1.594-.598 2.42-.901.758-.271 1.512-.549 2.266-.819a.767.767 0 0 1 .115-.043c.091-.04.181-.061.271-.098 53.516-19.426 105.466-40.857 101.039-155.53-.075-1.956-.081-3.803-.118-5.714z"/><path fill="#3B2C37" d="M420.306 67.448C431.405 27.146 453.17 5.999 460.355 0l-2.93 2.248C272.262 112.565 232.814 334.043 255.556 356.78c-6.133-7.104-1.443-22.276 19.758-34.692 7.864-4.61 17.95-9.293 30.63-13.997-34.299 11.454-61.615-13.737-8.806-120.711 57.221-115.913 111.354-114.727 114.798-42.394-.735-31.868 2.822-57.416 8.37-77.538z"/><path fill="#9E9E9E" d="M310.63 306.37c.13-.051.257-.093.387-.141-.091.037-.181.058-.271.098a.855.855 0 0 0-.116.043z"/><path fill="#483643" d="M301.914 567.865c4.989-11.147 22.385-24.755 37.962-29.394 11.326-13.907 18.704-29.696 22.506-45.887 9.426-40.057-3.041-82.549-31.979-104.893-33.484-25.854-60.857-16.904-74.865-30.912-.234-.234-.451-.522-.667-.801 10.072 15.014 28.095 14.866 47.246 29.985 22.947 18.112 34.418 48.854 32.362 85.524-4.293 76.689-105.344 112.608-142.132 67.844.779.981 1.526 1.988 2.33 2.927 25.89 29.895 69.111 42.161 107.237 25.607z"/><path fill="#3B3338" d="M278.109 506.077c5.299-.011 9.61-4.81 9.61-10.71.004-5.896-4.3-10.657-9.596-10.636-5.299.015-9.592 4.81-9.592 10.703-.003 5.903 4.282 10.664 9.578 10.643zM206.596 502.102c-4.52 1.565-6.789 6.904-5.064 11.937 1.713 5.025 6.782 7.832 11.312 6.267 4.509-1.566 6.786-6.908 5.061-11.934-1.721-5.033-6.789-7.833-11.309-6.27z"/><path fill="#FFF" d="M282.211 492.084c-.008 2.063-1.678 3.755-3.748 3.759a3.739 3.739 0 0 1-3.748-3.737 3.764 3.764 0 0 1 3.752-3.76 3.728 3.728 0 0 1 3.744 3.738zM213.471 509.262a3.766 3.766 0 0 1-3.758 3.755 3.728 3.728 0 0 1-3.749-3.729 3.775 3.775 0 0 1 3.755-3.762 3.73 3.73 0 0 1 3.752 3.736z"/><path fill="#80757A" d="M303.292 553.896c18.279-23.434 44.195-32.456 56.067-21.402 11.864 11.06-5.17 39.458-33.084 44.908-27.914 5.454-38.173-4.018-22.983-23.506z"/><path fill="#483643" d="M303.83 557.406c16.73-20.172 35.587-24.718 46.349-15.287 10.756 9.426-.095 31.239-25.538 36.034-25.421 4.798-34.735-3.965-20.811-20.747z"/></svg>
