<svg xmlns="http://www.w3.org/2000/svg" width="612" height="612" viewBox="0 0 612 612"><path fill="#454440" d="M402.232 228.865c-13.018-5.243-22.05-3.397-13.913 2.665l-.003.005c10.532 7.566 20.731 18.995 23.417 35.683 3.921 24.354 21.235 29.136 33.007 22.482 4.351-2.468 7.94-6.487 9.824-11.672 5.582 8.543 10.15 18.2 13.093 29.174 25.91 96.687-56.849 169.166-135.122 155.257-1.066-12.557-6.015-26.515-16.159-43.713-10.959-18.587-13.69-36.052-21.543-56.408-15.988-41.453 6.091-53.445 2.173-86.15-5.72-47.736-24.765-59.21-24.765-59.21l-.013.032c-31.931-37.498-84.286-34.008-100.848 19.703-22.7 73.61 1.225 146.441 36.868 136.233 13.955-3.997 26.638-9.709 37.113-16.805-.037.111-.06.225-.098.335-.437 1.124-1.964 5.024-3.515 8.335-.3.603-.563 1.225-.883 1.817-9.578 17.812-26.558 31.81-36.752 44.66-6.289 7.927-9.994 15.417-7.806 23.105.158.553.406 1.115.622 1.676l-.037.042c.082.215.177.377.263.568l.005.016c.164.385.353.77.54 1.158.366.749.745 1.499 1.219 2.26 1.601 2.565 3.76 3.29 7.408 3.719 2.599.3 2.465 5.656 8.68 3.168 1.799-.719 3.821-1.917 5.941-3.468-3.787 15.158-3.265 30.134 7.769 44.286.269.345.553.667.832.995 13.976 17.934 9.027 24.28-6.022 22.413-13.394-1.655-36.207 1.867-45.753 17.374.097-.243.229-.49.413-.749 0 0-2.565 2.979-1.488 3.421 1.08.44 3.955 2.544 3.955 2.544-1.113 1.42-4.679 4.602-4.855 5.422 0 0 3.471 2.079 9.027 3.559 8.704 2.649 22.01 4.559 32.17-3.559 17.455-13.948 35.494-8.455 35.494-19.918 0-7.962 1.814-11.844 5.72-14.058 5.983 3.046 11.79 3.721 14.863 3.845 1.48 3.277 3.671 6.354 6.936 8.666 12.551 8.891 7.384 18.15 3.953 31.735-5.161 20.443-8.137 49.841 34.417 59.121 0 0 17.753-26.034 2.352-48.239-1.801-2.597-3.392-4.879-4.849-7a46.41 46.41 0 0 0-5.076-7.811c-6.731-11.405-4.933-16.254 5.807-33.036 7.339-11.464 12.606-21.921 14.902-32.876 1.265.16 2.512.353 3.784.479 75.864 7.561 143.185-44.855 150.369-117.066 5.819-58.44-29.537-111.929-83.436-134.215zM241.116 483.131c.108.393.258.724.374 1.104a15.235 15.235 0 0 1-.374-1.104z"/><path fill="#483642" d="M162.021 218.642c-9.98-17.817-36.12-76.859-8.743-133.036 5.159-6.763 8.574-2.575 7.115 7.787-.008.074-.016.147-.021.224l-.005.042c-8.488 77.51 44.878 121.726 44.878 121.726 5.817 5.164 2.866 13.388-3.497 19.919-12.382 11.961-29.757 1.14-39.727-16.662z"/><path fill="#BBB9A1" d="M186.93 221.884c-1.43-2.552-3.374-5.828-5.612-9.754-1.014-1.72-1.938-3.432-2.886-5.148a295.025 295.025 0 0 1-2.92-5.419c-21.086-40.637-24.899-78.4-19.403-100.345 2.657-9.085 5.135-15.964 2.383-18.718 0 0-4.29-3.61-11.329 14.889l-.032.095c-12.941 32.286-10.062 105.695 32.997 163.613 5.923 7.976 5.799-14.866 14.366-20.059-1.981-.352-1.067-7.562-7.564-19.154z"/><path fill="#D7D6D6" d="M206.062 233.007c-2.104 2.157-4.59 4.119-7.255 5.733 1.061.187 2.937-1.559 7.255-5.733z"/><path fill="none" d="M196.924 436.069c.081.205.142.405.227.61l.008.011c-.09-.208-.154-.414-.235-.621z"/><path fill="#C5C3BF" d="M197.698 437.854c-.187-.389-.379-.773-.54-1.158.167.384.345.769.54 1.158zM196.302 434.394c.161.553.409 1.115.622 1.676-.213-.561-.461-1.124-.622-1.676zM246.072 355.67c-.234.158-.479.313-.714.471-.037.111-.063.225-.101.335l.127-.327c.232-.153.456-.326.688-.479z"/><path fill="#8C8A83" d="M198.917 440.113c-.477-.761-.853-1.511-1.219-2.26.356.75.743 1.5 1.219 2.26zM197.151 436.68l.008.01z"/><path fill="#C5C3BF" d="M196.887 436.111c.084.215.179.377.264.568-.084-.205-.146-.405-.227-.61l-.037.042zM184.824 542.797c-5.393-1.642-9.027-3.559-9.027-3.559s3.473 2.079 9.027 3.559zM247.491 347.175l.443 7.197z"/><path fill="#80757A" d="M267.853 227.424l4.371-10.415c-31.933-37.498-84.286-34.008-100.844 19.703-22.703 73.61.258 147.405 35.901 137.195 13.957-3.995 27.601-10.671 38.077-17.767.234-.157.479-.312.714-.471a69.106 69.106 0 0 0 1.861-1.298c34.009-24.459 56.533-84.467 19.92-126.947zM311.976 456.691c-.034-.135-.065-.271-.103-.408a79.93 79.93 0 0 0-2.833-8.717c-2.997-7.626-6.544-12.938-8.83-14.41-.604 4.819-1.596 10.781-4.051 15.939-.195.414-.411.819-.624 1.22-.875 1.622-1.907 3.139-3.134 4.487-1.291 1.417-2.789 2.654-4.556 3.624-6.744 3.697-11.493 1.617-15.379-1.083-3.323-2.307-6.03-5.063-8.801-5.063-.058 0-.098-.013-.153-.013-3.913-.034-6.412-1.218-8.006-2.784h-.031c-.047-.05-.079-.11-.124-.16-1.899-1.97-2.447-4.442-2.586-6.037-.002-.036-.016-.089-.019-.126-.495-3.771.164-8.107 1.014-11.7.99-4.184 2.241-7.348 2.241-7.348l-.084.335a62.781 62.781 0 0 0-1.33 7.329c-.545 4.655-.556 10.154 1.883 12.594 3.613 3.607 4.522.474 10.581 4.128 4.216 2.17 10.971 5.294 15.945-2.715.485-.782.954-1.648 1.399-2.649.784-1.765 1.511-3.86 2.144-6.409 4.274-17.223 4.229-34.438 1.943-48.932-1.027-6.505-2.501-12.456-4.256-17.613a79.081 79.081 0 0 0-.979-2.732c-1.765-4.52-3.453-7.811-5.104-10.189-.606-.877-1.214-1.651-1.814-2.283-5.214-5.475-10.188-2.13-16.227 2.191v-.003c-3.979 2.979-8.085 5.383-11.556 7.191-.279.146-.559.29-.83.427-4.527 2.308-7.773 3.521-7.773 3.521.29-.481.6-1.05.918-1.674-9.578 17.812-26.558 31.81-36.752 44.66-6.286 7.927-9.994 15.417-7.809 23.105.161.553.409 1.115.622 1.676.081.207.145.413.234.621 3.147 6.904 8.358 1.936 12.774 4.214 4.066 2.091 9.676-2.773 15.506-11.287-1.662 4.3-3.118 8.601-4.24 12.888-.092.345-.166.685-.253 1.027-3.787 15.158-3.265 30.134 7.769 44.286.269.345.553.667.832.995 13.973 17.934 9.028 24.28-6.025 22.413-13.391-1.655-36.205 1.867-45.753 17.374-.608 1.503.411 2.599 2.886 1.595 2.876-1.16 6.926-1.896 6.926-1.896s-2.467 1.063-6.926 5.521c-1.116 1.415-4.682 4.597-4.858 5.417 0 0 23.158 10.174 38.746-3.141 11.06-9.446 31.964-7.572 31.375-19.338-.458-9.214 1.538-16.628 2.431-19.416-2.791-3.34-5.198-7.613-6.86-13.109a15.636 15.636 0 0 1-.375-1.104c.108.393.258.724.375 1.104 1.443 3.876 7.905 16.943 28.868 18.632.248.021.482.05.729.062-1.567-7.39-.556-14.123-.556-14.123 0 5.533 1.888 11.979 5.027 17.334 3.229 5.512 7.782 9.859 12.975 10.854.861.163 1.741.229 2.636.2 4.037-.137 8.366-2.347 12.696-7.59 1.461-1.772 2.772-3.618 4.01-5.495a57.797 57.797 0 0 0 2.067-4.499c3.166-7.676 4.474-15.558 4.54-23.103.064-7.059-.951-13.808-2.502-19.815z"/><path fill="#8C8A83" d="M240.863 366.628a63.696 63.696 0 0 0 4.395-10.152c-.516 1.337-2.589 6.626-4.395 10.152zM284.386 370.18a47.238 47.238 0 0 1-1.009-2.417c-.042-.113-.086-.205-.129-.315.334.884.664 1.795.979 2.732h.159zM283.248 367.447c-1.577-4.156-3.321-7.708-5.13-10.477.011.098.016.192.026.287 1.651 2.38 3.339 5.671 5.104 10.19z"/><path fill="#483642" d="M220.625 306.564c-5.243-1.517-11.013 2.457-12.872 8.866-1.872 6.37.898 12.815 6.125 14.327 5.251 1.526 11-2.481 12.862-8.854 1.869-6.397-.853-12.843-6.115-14.339z"/><path fill="#FFF" d="M220.578 310.728c-1.67-.484-3.514.782-4.108 2.826-.596 2.033.29 4.087 1.954 4.571 1.675.49 3.513-.79 4.107-2.825.596-2.041-.273-4.095-1.953-4.572z"/><path fill="#DFDFC9" d="M274.426 205.548c9.394-27.967 32.086-118.21-11.787-190.884-7.616-8.264-11.149-1.404-7.553 12.945.023.103.048.211.069.316l.016.058c23.959 108.007-35.077 184.959-35.077 184.959-6.381 8.877-1.272 19.796 7.805 27.404 17.525 13.752 37.134-6.846 46.527-34.798z"/><g fill="#483642"><path d="M198.917 440.113c1.602 2.565 3.758 3.29 7.408 3.719 2.6.3 2.465 5.656 8.68 3.168 1.798-.719 3.821-1.917 5.941-3.468.087-.343.161-.683.253-1.027 1.122-4.287 2.578-8.588 4.24-12.888-5.83 8.514-11.439 13.378-15.506 11.287-4.416-2.278-9.627 2.69-12.774-4.214v.005c.161.385.353.77.54 1.158.365.75.742 1.5 1.218 2.26zM180.654 533.821c4.459-4.458 6.926-5.521 6.926-5.521s-4.05.735-6.926 1.896c-2.475 1.004-3.494-.092-2.886-1.595.1-.243.232-.49.416-.749 0 0-2.565 2.979-1.488 3.421 1.08.44 3.956 2.543 3.958 2.548z"/><path d="M422.604 239.314a141.157 141.157 0 0 0-20.377-10.45c-13.016-5.243-22.048-3.397-13.911 2.665l-.002.005c10.531 7.566 20.73 18.995 23.419 35.683 3.919 24.354 21.23 29.136 33.002 22.482 4.351-2.468 7.943-6.487 9.823-11.672 5.588 8.543 10.154 18.2 13.096 29.174 25.91 96.687-56.848 169.166-135.122 155.257-1.066-12.557-6.015-26.515-16.161-43.713-10.958-18.587-13.688-36.052-21.541-56.408-15.987-41.453 6.091-53.445 2.173-86.15-4.021-33.566-14.624-49.187-20.57-55.515 35.246-88.691 14.757-156.284-6.584-195.509-2.683-4.806-5.093-8.2-7.21-10.499 43.873 72.674 15.817 160.136 6.423 188.104-9.388 27.949-23.637 51.331-41.163 37.579 12.662 10.602 33.071 14.757 40.969-2.157.951-2.035 1.83-4.044 2.72-6.062 31.203 42.095 9.117 98.672-23.654 122.244-.616.445-1.238.877-1.861 1.298-.232.153-.456.326-.688.479l-.127.327a63.657 63.657 0 0 1-4.395 10.152 28.278 28.278 0 0 1-.918 1.674s3.247-1.213 7.773-3.521c.271-.137.551-.281.83-.427 3.471-1.809 7.577-4.213 11.556-7.191v.003c6.039-4.321 11.013-7.666 16.227-2.191.601.632 1.208 1.406 1.814 2.283-.011-.095-.016-.189-.026-.287 1.809 2.769 3.553 6.32 5.13 10.477.042.11.087.202.129.315.353.911.683 1.696 1.009 2.417h-.158c1.754 5.157 3.229 11.108 4.256 17.613 2.286 14.494 2.331 31.709-1.943 48.932-.632 2.549-1.359 4.645-2.144 6.409a21.718 21.718 0 0 1-1.399 2.649c-4.974 8.009-11.729 4.885-15.945 2.715-6.059-3.654-6.968-.521-10.581-4.128-2.438-2.439-2.428-7.938-1.883-12.594a62.781 62.781 0 0 1 1.33-7.329l.084-.335s-1.251 3.164-2.241 7.348c-.851 3.593-1.509 7.929-1.014 11.7.003.037.016.09.019.126.14 1.595.688 4.067 2.586 6.037.044.05.076.11.124.16h.031c1.594 1.566 4.093 2.75 8.006 2.784.055 0 .095.013.153.013 2.771 0 5.478 2.757 8.801 5.063 3.887 2.7 8.635 4.78 15.379 1.083 1.767-.97 3.265-2.207 4.556-3.624 1.228-1.349 2.26-2.865 3.134-4.487.213-.4.429-.806.624-1.22 2.455-5.158 3.447-11.12 4.051-15.939 2.286 1.473 5.833 6.784 8.83 14.41a79.858 79.858 0 0 1 2.833 8.717c.037.137.068.273.103.408 1.552 6.007 2.566 12.756 2.505 19.816-.066 7.545-1.374 15.427-4.54 23.103a58.17 58.17 0 0 1-2.067 4.499c-1.238 1.877-2.549 3.723-4.01 5.495-4.33 5.243-8.659 7.453-12.696 7.59a12.1 12.1 0 0 1-2.636-.2c-5.193-.995-9.747-5.343-12.975-10.854-3.139-5.354-5.027-11.801-5.027-17.334 0 0-1.011 6.733.556 14.123-.248-.013-.482-.042-.729-.062-20.962-1.688-27.425-14.756-28.868-18.632 1.662 5.496 4.069 9.77 6.86 13.109-.893 2.788-2.889 10.202-2.431 19.416.59 11.766-20.314 9.892-31.375 19.338-15.587 13.314-38.746 3.141-38.746 3.141s3.634 1.917 9.027 3.559c8.703 2.649 22.01 4.559 32.17-3.559 17.452-13.948 35.494-8.455 35.494-19.918 0-7.962 1.814-11.844 5.719-14.058 5.986 3.046 11.79 3.721 14.863 3.845 1.48 3.277 3.671 6.354 6.937 8.666 12.551 8.891 7.384 18.15 3.953 31.735-5.162 20.443-8.137 49.841 34.413 59.121 0 0 17.756-26.034 2.354-48.239-1.8-2.597-3.392-4.879-4.848-7a46.602 46.602 0 0 0-5.077-7.811c-6.731-11.405-4.932-16.254 5.807-33.036 7.34-11.464 12.606-21.921 14.902-32.876 1.265.16 2.513.353 3.784.479 75.864 7.561 143.186-44.855 150.369-117.066 5.043-50.702-20.907-97.659-63.063-123.767z"/></g><path fill="#80757A" d="M300.399 562.582c-8.583-13.561-13.059-10.116-14.226-2.895-2.226 19.782 2.244 34.487 19.327 41.019 14.337 5.482 5.707-20.965-5.101-38.124z"/><path fill="#DCD66F" d="M233.039 158.429c-2.923-8.082-21.691-8.714-41.914-1.415-20.243 7.297-34.282 19.761-31.369 27.84 2.905 8.077 21.676 8.712 41.916 1.412 20.228-7.294 34.271-19.761 31.367-27.837zm-36.441 13.764c-10.794 3.895-20.301 4.975-21.226 2.412-.924-2.568 7.084-7.795 17.884-11.692 10.794-3.887 20.298-4.966 21.223-2.404.921 2.556-7.082 7.795-17.881 11.684z"/><path fill="#80757A" d="M169.36 342.871c7.951 23.757 9.298 34.599 9.298 34.599s19.235 1.349 38.591-7.405c24.681-11.161-10.081-27.193-10.081-27.193"/><path fill="#483642" d="M295.394 300.718c16.074-63.137 2.928-93.474 2.928-93.474s-11.35 5.73-23.035 1.462v9.438s.34 8.203 1.575 9.438c1.235 1.235 8.314 15.956 8.314 15.956s2.141 5.617 2.141 7.416c0 1.799 3.476 18.427 3.476 19.775 0 1.349-3.476 9.665-3.476 9.665M318.771 596.573l9.438 5.505s1.312-15.369-2.041-29.258c-3.352-13.889-6.61-7.932-6.61-7.932"/></svg>
